<?xml version="1.0" encoding="UTF-8" standalone="no"?>
<!-- Created with Inkscape (http://www.inkscape.org/) -->

<svg
   width="96mm"
   height="114.70485mm"
   viewBox="0 0 96 114.70485"
   version="1.1"
   id="svg5"
   sodipodi:docname="kitty2.svg"
   inkscape:version="1.3.2 (091e20e, 2023-11-25, custom)"
   inkscape:export-filename="kitty2.png"
   inkscape:export-xdpi="264.17001"
   inkscape:export-ydpi="264.17001"
   xml:space="preserve"
   xmlns:inkscape="http://www.inkscape.org/namespaces/inkscape"
   xmlns:sodipodi="http://sodipodi.sourceforge.net/DTD/sodipodi-0.dtd"
   xmlns="http://www.w3.org/2000/svg"
   xmlns:svg="http://www.w3.org/2000/svg"><sodipodi:namedview
     id="namedview7"
     pagecolor="#505050"
     bordercolor="#eeeeee"
     borderopacity="1"
     inkscape:showpageshadow="0"
     inkscape:pageopacity="0"
     inkscape:pagecheckerboard="0"
     inkscape:deskcolor="#505050"
     inkscape:document-units="mm"
     showgrid="false"
     inkscape:zoom="1.829812"
     inkscape:cx="163.67801"
     inkscape:cy="194.28225"
     inkscape:window-width="2560"
     inkscape:window-height="1377"
     inkscape:window-x="-8"
     inkscape:window-y="-8"
     inkscape:window-maximized="1"
     inkscape:current-layer="layer1" /><defs
     id="defs2" /><g
     inkscape:label="Layer 1"
     inkscape:groupmode="layer"
     id="layer1"
     transform="translate(0.49999495,-0.42372545)"><path
       style="fill:#000000;stroke-width:1.04536"
       d="m 67.907056,115.09638 c -0.02854,-0.0462 -0.210473,-0.52195 -0.404199,-1.05713 l -0.352234,-0.97305 0.463481,-0.426 c 2.249603,-2.06769 3.451191,-5.84028 3.451191,-10.83564 0,-4.983541 -1.158833,-8.624861 -3.453344,-10.851236 l -0.455108,-0.441591 0.343004,-0.947555 c 0.188645,-0.521153 0.368959,-0.989558 0.400686,-1.040906 0.09126,-0.147709 0.962859,0.344749 1.795174,1.014312 1.229771,0.989307 2.613231,2.861054 3.383347,4.577502 2.82456,6.295414 1.73586,14.642194 -2.486492,19.063264 -1.015974,1.0638 -2.540515,2.15264 -2.685506,1.91803 z m -6.496907,-1.3321 c -0.525513,-0.2816 -0.974704,-0.53095 -0.998193,-0.55412 -0.02352,-0.0232 0.188949,-0.52828 0.472105,-1.12249 0.720221,-1.51139 0.744965,-1.63411 0.800787,-3.97195 l 0.04986,-2.08697 h 1.648103 1.648113 l -0.0021,1.68466 c -0.0021,2.08854 -0.134339,2.76059 -0.810854,4.12312 -0.379266,0.76384 -0.685076,1.21269 -1.182144,1.73506 l -0.670525,0.70467 z m -10.158205,-1.80152 v -1.20692 h 4.173921 4.17391 v 1.20692 1.20692 h -4.17391 -4.173921 z m -41.18877,-1.61343 C 7.8674554,110.06219 6.2494736,109.14485 5.5721572,107.8031 4.8680922,106.40836 4.8576396,106.26666 4.8123191,97.501862 l -0.040706,-7.873144 1.2786426,0.02822 c 1.071722,0.02362 1.2959766,0.05572 1.3857573,0.198326 0.081507,0.129447 0.065021,0.216629 -0.068962,0.364684 -0.1649556,0.182269 -0.1741339,0.660771 -0.1452851,7.574243 0.030504,7.310099 0.032887,7.385889 0.2533135,8.037629 0.5209213,1.54028 1.8697315,2.30994 4.0452556,2.30836 2.462433,-0.002 4.824224,-1.16222 7.323786,-3.59833 l 0.925527,-0.90203 0.761303,0.94652 0.761303,0.94653 -0.262197,0.3116 c -0.983782,1.16916 -3.100479,2.77001 -4.627762,3.49996 -1.934085,0.92438 -4.203633,1.28417 -6.339115,1.00491 z m 26.552121,0 c -2.065208,-0.27008 -3.741308,-1.17581 -4.393557,-2.3742 -0.14628,-0.26877 -0.36971,-0.82797 -0.49651,-1.24266 l -0.230546,-0.754 -0.03202,-8.171823 -0.03202,-8.171813 h 1.198498 c 1.402433,0 1.597588,0.09377 1.294403,0.622051 -0.157417,0.274282 -0.17185,0.868296 -0.17185,7.0729 0,4.120195 0.04099,7.081645 0.104647,7.560215 0.285734,2.14814 1.46097,3.12262 3.892301,3.22738 2.59383,0.11177 4.876027,-0.93785 7.5769,-3.48478 l 1.039965,-0.98068 0.746721,0.94549 0.746721,0.94547 -0.19797,0.26808 c -0.350551,0.4747 -2.063414,1.92653 -3.0534,2.58808 -2.479675,1.65701 -5.185609,2.31731 -7.992275,1.95029 z m 44.004906,-2.01372 c -0.636142,-0.50036 -1.16776,-0.94123 -1.18136,-0.9797 -0.01359,-0.0385 0.280574,-0.22773 0.653747,-0.42059 0.910131,-0.47035 2.928657,-1.82553 3.907113,-2.62312 0.980944,-0.79963 2.616701,-2.43121 3.3742,-3.36562 1.910707,-2.356886 3.628452,-5.835716 4.716347,-9.551665 0.178139,-0.608482 0.333574,-1.11822 0.345418,-1.13274 0.03115,-0.03826 2.794642,1.190538 2.944097,1.309082 0.206343,0.163682 0.143873,0.375765 -0.16247,0.551584 -0.236491,0.135729 -0.391874,0.428074 -0.866174,1.629683 -2.00203,5.071989 -4.231394,8.503116 -7.632805,11.747326 -1.431922,1.36573 -4.521512,3.74995 -4.854825,3.74644 -0.04767,-5.1e-4 -0.607145,-0.41031 -1.243288,-0.91068 z M 13.680969,93.746399 c -1.047853,-0.670431 -1.945892,-1.256512 -1.995644,-1.302403 -0.05166,-0.04767 0.120886,-0.362091 0.402305,-0.733163 l 0.492762,-0.649732 0.452593,0.257963 c 0.942005,0.536918 3.520167,2.263997 3.520167,2.358121 0,0.07893 -0.892683,1.288186 -0.950927,1.288186 -0.0089,0 -0.873404,-0.548542 -1.921256,-1.218972 z m 1.948896,-2.368701 -1.979338,-1.26501 0.470695,-0.637104 c 0.258882,-0.350405 0.510001,-0.638955 0.558044,-0.641234 0.100563,-0.0052 3.863051,2.392733 3.933238,2.50629 0.0512,0.0829 -0.832519,1.31433 -0.937744,1.306773 -0.03605,-0.0021 -0.956259,-0.573965 -2.044895,-1.269715 z M 6.6966825,72.536877 V 61.372915 H 7.9035966 9.1105118 V 72.536877 83.700832 H 7.9035966 6.6966825 Z m 58.1352615,8.017518 c -1.548439,-5.357811 -3.625243,-11.679307 -5.6574,-17.22024 -1.452464,-3.960343 -1.579277,-4.362273 -1.653529,-5.240688 l -0.06283,-0.743596 h 1.270049 c 1.44453,0 1.324512,-0.08593 1.404524,1.005761 0.02749,0.37518 0.453194,1.718194 1.322996,4.17391 1.578367,4.456188 3.946889,11.545853 5.224882,15.639605 l 0.957643,3.067575 -0.339616,0.301722 c -0.186785,0.16595 -0.653297,0.583059 -1.036682,0.926899 l -0.697067,0.625166 z m -47.329431,0.552702 c -0.833116,-0.813781 -1.891417,-1.751154 -2.351782,-2.083056 -0.460364,-0.331901 -0.928724,-0.675333 -1.0408,-0.763185 -0.199576,-0.156428 -0.187837,-0.180764 0.569687,-1.181047 l 0.773462,-1.021337 0.424316,0.266274 c 0.936792,0.587879 1.899237,1.262878 2.503138,1.755556 0.756589,0.617242 2.497396,2.312219 2.497396,2.431641 0,0.106376 -1.708341,2.083902 -1.795704,2.078655 -0.03573,-0.0021 -0.746596,-0.66972 -1.579713,-1.483501 z M 40.113131,63.913221 c -0.717347,-0.03418 -0.729159,-0.0391 -0.727989,-0.306886 0.0042,-0.838116 0.527813,-1.96102 1.197919,-2.566419 0.957779,-0.865296 1.871381,-0.908794 3.568511,-0.169881 1.436188,0.625302 2.016362,0.674141 2.48161,0.208894 0.172819,-0.17283 0.293986,-0.400812 0.293986,-0.553173 0,-0.25097 0.01997,-0.259155 0.628606,-0.258308 0.345732,4.81e-4 0.871819,0.03011 1.169098,0.06575 l 0.540493,0.06492 -0.05551,0.537983 c -0.108863,1.054872 -0.858616,2.221367 -1.722637,2.680176 -0.320883,0.170393 -0.584711,0.217643 -1.222714,0.219013 -0.768904,0.0021 -0.86998,-0.0253 -1.841651,-0.49135 -0.641098,-0.307482 -1.214143,-0.510972 -1.522346,-0.540587 -0.459572,-0.04411 -0.519136,-0.02258 -0.848769,0.307032 -0.223833,0.223833 -0.354513,0.450906 -0.354513,0.61601 0,0.289899 0.167163,0.270183 -1.584075,0.186816 z M 5.3891912,56.67965 C 2.6446593,55.066525 0.50365187,51.517878 -0.26057152,47.315348 -0.5581884,45.678728 -0.58357808,41.758937 -0.30729907,40.101045 0.16942651,37.240297 1.2780822,34.659341 2.8919432,32.653196 3.5441887,31.842408 4.7386318,30.82636 5.4828951,30.449213 l 0.4751418,-0.240774 0.3761307,1.058645 0.3761296,1.058645 -0.4163864,0.356412 c -2.4920045,2.133062 -3.8697031,7.342408 -3.424768,12.949707 0.3171317,3.996648 1.4273167,6.944968 3.2720808,8.68967 L 6.7100181,54.85946 6.3380417,55.903512 C 6.1334545,56.477739 5.938103,56.947136 5.903927,56.946613 5.8697542,56.946091 5.6381204,56.825948 5.3891943,56.67965 Z M 18.514388,54.470262 c -0.940387,-1.023868 -1.724882,-1.903667 -1.74332,-1.955105 -0.01994,-0.05563 0.7753,-0.09353 1.962836,-0.09353 h 1.996364 l 0.84033,1.833885 c 0.462182,1.008625 0.862323,1.891191 0.889202,1.96123 0.03775,0.09837 -0.211172,0.125966 -1.093373,0.12123 l -1.142243,-0.0063 z m 18.614226,-1.393163 c -2.060501,-0.84707 -2.822302,-3.505455 -1.553478,-5.421028 0.659288,-0.995343 1.709554,-1.51419 3.05845,-1.510918 3.321499,0.008 4.823053,4.143351 2.308253,6.356965 -0.964229,0.848744 -2.561451,1.089584 -3.813225,0.574981 z m 2.228011,-1.111171 c 1.737199,-0.725845 2.133693,-2.76905 0.76975,-3.966609 -0.716311,-0.628929 -1.685591,-0.790412 -2.506398,-0.417568 -0.540318,0.245435 -1.195422,1.005178 -1.353465,1.569652 -0.492104,1.757622 1.429896,3.508209 3.090113,2.814525 z m 22.355246,-0.892472 c 0,-0.02458 1.589092,-3.49913 3.531306,-7.721226 1.942226,-4.222096 3.553772,-7.733112 3.581223,-7.802258 0.03952,-0.09947 -0.907926,-0.125721 -4.537068,-0.125721 h -4.586983 v -1.609219 -1.60922 h 6.688323 6.688312 v 1.189324 1.189324 l -3.556176,8.239698 -3.556186,8.239696 -2.126376,0.02715 c -1.169506,0.01493 -2.126375,0.007 -2.126375,-0.01754 z M 10.652592,36.551671 c -2.2416502,-0.800977 -2.4866102,-3.557108 -0.417995,-4.703009 0.721896,-0.399891 2.184164,-0.43602 2.868158,-0.07087 2.555513,1.364279 1.707188,4.769473 -1.226397,4.922788 -0.50634,0.02647 -0.849975,-0.01536 -1.223766,-0.148914 z m 1.544091,-1.134119 c 0.913915,-0.346273 1.202455,-1.453668 0.573517,-2.201118 -0.514482,-0.611427 -1.57493,-0.611427 -2.089412,0 -0.9189777,1.092143 0.19059,2.703262 1.515895,2.201118 z M 11.120661,27.527631 10.471352,26.872498 23.695451,13.648112 C 30.968705,6.3747 36.966181,0.42372545 37.023175,0.42372545 c 0.05699,0 0.384614,0.28350976 0.728045,0.63002015 L 38.37564,1.6837658 25.125857,14.933265 c -7.287381,7.287224 -13.273656,13.249498 -13.302834,13.249498 -0.02918,0 -0.345241,-0.29481 -0.702362,-0.655132 z M 39.987416,14.303245 V 3.1392842 h 1.156616 1.156628 v 11.1639608 11.16396 h -1.156628 -1.156616 z m 10.855563,8.707075 c -0.79924,-0.780748 -1.960341,-1.798971 -2.580239,-2.262715 -0.656235,-0.490931 -1.099509,-0.889202 -1.061081,-0.953353 0.03627,-0.0606 0.377939,-0.526612 0.759202,-1.035585 l 0.693209,-0.925405 0.871495,0.560953 c 0.479318,0.308524 1.256187,0.859492 1.726379,1.224374 0.925896,0.71851 2.816135,2.500684 2.816135,2.655125 0,0.05233 -0.398689,0.558868 -0.885973,1.125645 l -0.885963,1.030504 z"
       id="path1" /></g></svg>
