<?xml version="1.0" encoding="UTF-8" standalone="no"?>
<!-- Created with Inkscape (http://www.inkscape.org/) -->

<svg
   width="32"
   height="31.286621"
   viewBox="0 0 32 31.286621"
   version="1.1"
   id="svg1"
   xmlns="http://www.w3.org/2000/svg"
   xmlns:svg="http://www.w3.org/2000/svg">
  <defs
     id="defs1" />
  <g
     id="layer1">
    <rect
       style="fill:#f9f9f9;stroke-width:1.061"
       id="rect2"
       width="32"
       height="31.286621"
       x="0"
       y="0"
       ry="9.4777088" />
    <path
       d="m 3.0624446,14.253919 q 0,-0.863005 0.602097,-1.485172 0.6221669,-0.622167 1.5052425,-0.622167 0.8830756,0 1.4851727,0.622167 0.602097,0.622167 0.602097,1.485172 0,0.863006 -0.602097,1.485173 -0.6020971,0.602097 -1.4851727,0.602097 -0.8830756,0 -1.5052425,-0.602097 -0.602097,-0.622167 -0.602097,-1.485173 z m 0,6.924116 q 0,-0.842936 0.602097,-1.445033 0.6221669,-0.622167 1.5052425,-0.622167 0.8830756,0 1.4851727,0.622167 0.602097,0.602097 0.602097,1.445033 0,0.883076 -0.602097,1.505243 -0.6020971,0.622167 -1.4851727,0.622167 -0.8830756,0 -1.5052425,-0.622167 -0.602097,-0.622167 -0.602097,-1.505243 z m 9.4554274,-6.843836 q 0.742587,0 1.284474,0.321118 0.561957,0.301049 1.204194,0.863006 0.461608,0.421468 0.782726,0.622167 0.341188,0.200699 0.702447,0.200699 0.541887,0 0.943285,-0.361258 0.421468,-0.381328 0.842936,-1.204194 l 1.766151,0.782726 q -0.702447,1.545382 -1.545382,2.368248 -0.842936,0.822866 -2.08727,0.822866 -0.722516,0 -1.264404,-0.301048 -0.521817,-0.301049 -1.204194,-0.883076 -0.501747,-0.421468 -0.842936,-0.622167 -0.321118,-0.200699 -0.662306,-0.200699 -0.541888,0 -0.963356,0.381328 -0.401398,0.381328 -0.822866,1.184124 L 8.8852202,17.505243 q 0.7225165,-1.485172 1.5453828,-2.328108 0.842935,-0.842936 2.087269,-0.842936 z M 24.742946,8.7547667 q 2.287969,0.200699 3.953771,1.5855223 l -1.545383,1.625662 Q 26.08763,11.082875 24.742946,10.982526 v 3.512232 q 2.167549,0.702447 3.171044,1.685872 1.023565,0.963355 1.023565,2.689367 0,1.726011 -1.103844,2.930205 -1.103845,1.184124 -3.090765,1.424963 v 2.990415 h -1.625662 v -2.930205 q -1.404893,-0.10035 -2.568947,-0.622167 -1.164054,-0.521818 -1.96685,-1.284474 l 1.525312,-1.766151 q 0.702447,0.622167 1.424963,0.963355 0.722517,0.321119 1.585522,0.381328 V 16.782727 Q 20.969805,16.060211 20.02652,15.096855 19.083234,14.1335 19.083234,12.708537 q 0,-1.645732 1.083775,-2.689367 1.083774,-1.0436344 2.950275,-1.2443334 V 5.7844214 h 1.625662 z m -1.625662,2.2478293 q -0.582027,0.100349 -0.903145,0.461607 -0.301049,0.361259 -0.301049,0.863006 0,0.541887 0.220769,0.883076 0.240839,0.321118 0.983425,0.662306 z m 1.625662,9.894461 q 1.244334,-0.280979 1.244334,-1.645732 0,-0.622167 -0.260909,-1.043635 -0.260908,-0.421468 -0.983425,-0.782726 z"
       id="text2"
       style="font-weight:bold;font-size:20.0699px;font-family:'Fira Mono';-inkscape-font-specification:'Fira Mono Bold';letter-spacing:-2.74708px;fill:#c6e9af;fill-opacity:1;stroke-width:0.235195"
       aria-label=":~$" />
  </g>
</svg>
