<?xml version="1.0" encoding="UTF-8" standalone="no"?>
<!-- Created with Inkscape (http://www.inkscape.org/) -->

<svg
   width="32"
   height="32"
   viewBox="0 0 32 32"
   version="1.1"
   id="svg1"
   xmlns="http://www.w3.org/2000/svg"
   xmlns:svg="http://www.w3.org/2000/svg">
  <defs
     id="defs1" />
  <g
     id="layer1">
    <rect
       style="fill:#f9f9f9;stroke-width:1.061"
       id="rect2"
       width="32"
       height="31.286621"
       x="0"
       y="0"
       ry="9.4777088" />
    <path
       style="font-weight:bold;font-size:85.3333px;font-family:'Fira Mono';-inkscape-font-specification:'Fira Mono Bold';letter-spacing:-8.50729px;white-space:pre;fill:#c6e9af;stroke-width:0.379233"
       d="m 3.3072502,10.401507 q 0,-1.3915328 0.970837,-2.3947308 1.003198,-1.0031985 2.4270921,-1.0031985 1.4238945,0 2.3947315,1.0031985 0.9708372,1.0031981 0.9708372,2.3947308 0,1.391533 -0.9708372,2.394731 -0.970837,0.970837 -2.3947315,0.970837 -1.4238941,0 -2.4270921,-0.970837 -0.970837,-1.003198 -0.970837,-2.394731 z m 0,11.164624 q 0,-1.359171 0.970837,-2.330008 1.003198,-1.003198 2.4270921,-1.003198 1.4238945,0 2.3947315,1.003198 0.9708372,0.970837 0.9708372,2.330008 0,1.423894 -0.9708372,2.427093 -0.970837,1.003198 -2.3947315,1.003198 -1.4238941,0 -2.4270921,-1.003198 -0.970837,-1.003199 -0.970837,-2.427093 z"
       id="text1"
       aria-label=":" />
    <path
       style="font-weight:bold;font-size:85.3333px;font-family:'Fira Mono';-inkscape-font-specification:'Fira Mono Bold';letter-spacing:-8.50729px;white-space:pre;fill:#c6e9af;stroke-width:0.379233"
       d="m 20.343552,4.220512 q 2.330009,0 4.045154,0.7766695 1.747507,0.7766695 2.653621,2.1034802 0.938476,1.2944493 0.938476,2.8801494 0,2.0711189 -1.229727,3.3979289 -1.197365,1.326811 -3.365568,1.974036 5.307242,0.711946 5.307242,5.566131 0,1.909313 -1.067921,3.495013 -1.035559,1.553339 -3.009594,2.459454 -1.974035,0.906114 -4.595295,0.906114 -2.459453,0 -4.46585,-0.873753 -2.006396,-0.873753 -3.43029,-2.491815 l 2.880149,-2.685982 q 1.844591,2.135841 4.660018,2.135841 1.715145,0 2.750704,-0.873753 1.03556,-0.873753 1.03556,-2.427092 0,-3.365568 -3.786264,-3.365568 h -2.038758 l 0.582502,-3.495014 h 1.423895 q 1.553338,0 2.459453,-0.744307 0.938476,-0.77667 0.938476,-2.200564 0,-1.2620882 -0.906115,-1.9740355 -0.906114,-0.7443083 -2.36237,-0.7443083 -2.427092,0 -4.465849,1.9416739 L 12.673941,7.2624677 Q 15.81298,4.220512 20.343552,4.220512 Z"
       id="text1-2"
       aria-label="3" />
  </g>
</svg>
